<svg xmlns="http://www.w3.org/2000/svg" viewBox="0 0 492.91 82.26"><defs><style>.cls-1{fill:#fff;}.cls-2{fill:#dfdf1d;}</style></defs><g id="Layer_2" data-name="Layer 2"><g id="Layer_1-2" data-name="Layer 1"><path class="cls-1" d="M62.76,75.55a30.75,30.75,0,0,1-11.85-2.16A24.22,24.22,0,0,1,42,67.18a27.94,27.94,0,0,1-5.6-9.79,39.92,39.92,0,0,1-1.95-12.93,40,40,0,0,1,1.95-12.93,27.61,27.61,0,0,1,5.64-9.78A24.5,24.5,0,0,1,51,15.54a30.52,30.52,0,0,1,11.77-2.16,30.75,30.75,0,0,1,11.85,2.16,23.71,23.71,0,0,1,8.83,6.21A27.82,27.82,0,0,1,89,31.53a40.87,40.87,0,0,1,1.91,12.93,40.75,40.75,0,0,1-1.91,13,26.06,26.06,0,0,1-5.63,9.65L90.53,76l-7.46,6.3L75.52,73A30.45,30.45,0,0,1,62.76,75.55Zm6.13-26.44,6.72,8.45q2.48-4.73,2.48-13.1,0-9.78-3.77-15.12T62.76,24Q55,24,51.11,29.34T47.26,44.46q0,9.87,3.85,15.3t11.65,5.43A22.08,22.08,0,0,0,65.83,65a12.72,12.72,0,0,0,2.81-.71l-7.21-8.86Z"/><path class="cls-1" d="M112.33,14.87V50.1q0,7.55,2.65,11.19t8.87,3.65q6.21,0,8.83-3.65t2.61-11.19V14.87h12.35V50.1A35.58,35.58,0,0,1,146,61.62a20.61,20.61,0,0,1-4.73,7.92,18.37,18.37,0,0,1-7.5,4.56,32.18,32.18,0,0,1-10,1.45,31.31,31.31,0,0,1-10.07-1.5,18.66,18.66,0,0,1-7.51-4.6,19.81,19.81,0,0,1-4.64-8A38,38,0,0,1,100,49.85v-35Z"/><path class="cls-1" d="M199,14.87V25.4h-28V38.33h26.36V48.94H170.93V63.53h29.76l-1.25,10.52H158.58V14.87Z"/><path class="cls-1" d="M221,62.7q3.12,2.49,9.16,2.49a16.32,16.32,0,0,0,4.89-.63,9.3,9.3,0,0,0,3.24-1.65A6,6,0,0,0,240,60.46a8.5,8.5,0,0,0,.54-3.07A6.6,6.6,0,0,0,238.82,53q-1.74-2-6.39-2.94l-7.7-1.41a45.69,45.69,0,0,1-8-2.15,18.65,18.65,0,0,1-5.85-3.44,13.89,13.89,0,0,1-3.6-5.18,19.39,19.39,0,0,1-1.25-7.3,15.84,15.84,0,0,1,1.7-7.46,15.17,15.17,0,0,1,4.73-5.38,22.07,22.07,0,0,1,7.25-3.28A36.48,36.48,0,0,1,229,13.38a33.52,33.52,0,0,1,10.78,1.49,19.69,19.69,0,0,1,7,3.94,15.37,15.37,0,0,1,3.94,5.68,27,27,0,0,1,1.7,6.71l-11.69,1.49c-.61-3.26-1.78-5.6-3.52-7s-4.38-2.16-7.92-2.16A20.61,20.61,0,0,0,224,24a10.37,10.37,0,0,0-3.27,1.41,4.82,4.82,0,0,0-1.74,2,6,6,0,0,0-.5,2.41,6.32,6.32,0,0,0,1.86,5q1.88,1.65,6.34,2.57L234.84,39q9.61,1.92,14.09,6.18t4.47,12.31A17.5,17.5,0,0,1,252,64.65a15.89,15.89,0,0,1-4.31,5.72,20.22,20.22,0,0,1-7.17,3.81,33.55,33.55,0,0,1-10.11,1.37q-12.11,0-18.52-5.18t-6.92-15.63h12.51Q217.85,60.22,221,62.7Z"/><path class="cls-1" d="M256.89,25.57V14.87H305v10.7H287.14V74.05H274.71V25.57Z"/><path class="cls-1" d="M325,14.87V74.05H312.67V14.87Z"/><path class="cls-1" d="M351.63,73.39a24.22,24.22,0,0,1-8.87-6.21,27.77,27.77,0,0,1-5.59-9.79,39.92,39.92,0,0,1-1.95-12.93,40,40,0,0,1,1.95-12.93,27.44,27.44,0,0,1,5.63-9.78,24.5,24.5,0,0,1,8.91-6.21,33.39,33.39,0,0,1,23.63,0,23.67,23.67,0,0,1,8.82,6.21,27.66,27.66,0,0,1,5.51,9.78,40.59,40.59,0,0,1,1.91,12.93,41.69,41.69,0,0,1-1.86,12.93,27.4,27.4,0,0,1-5.47,9.79,23.9,23.9,0,0,1-8.83,6.21,33.83,33.83,0,0,1-23.79,0ZM375,59.63q3.83-5.3,3.82-15.17T375,29.34Q371.19,24,363.4,24t-11.6,5.35Q348,34.68,348,44.46t3.82,15.17q3.81,5.31,11.6,5.31T375,59.63Z"/><path class="cls-1" d="M412.89,14.87l24.36,38.79V14.87h12V74.05h-11L413.8,35.6V74.05h-12V14.87Z"/><path class="cls-2" d="M450.43,55.73q4.36-3.58,8.83-7.53t7.63-7a48.37,48.37,0,0,0,5.45-6,23.76,23.76,0,0,0,3.28-5.77,17.58,17.58,0,0,0,1.09-6.28,10.56,10.56,0,0,0-2.55-7.32A8.76,8.76,0,0,0,467.25,13q-5.19,0-8.15,2.34t-4.41,8.88l-14.13-1.66a42.08,42.08,0,0,1,2.7-8.47A23.21,23.21,0,0,1,448.09,7a21.53,21.53,0,0,1,7.74-4.83A32.77,32.77,0,0,1,467.36.42q12,0,18.28,5.92t6.23,16.1a28.18,28.18,0,0,1-1.09,8,30,30,0,0,1-3.27,7.22A45.06,45.06,0,0,1,482,44.83q-3.37,3.59-8.05,7.73c-1.66,1.39-3.34,2.77-5,4.16s-3.51,3-5.45,4.78h29.5l-1.56,12.67H441.6V63.26Q446.07,59.32,450.43,55.73Z"/><rect class="cls-2" width="4.78" height="81.83"/></g></g></svg>